<?xml version="1.0" encoding="UTF-8" standalone="no"?><!-- Generator: Gravit.io --><svg xmlns="http://www.w3.org/2000/svg" xmlns:xlink="http://www.w3.org/1999/xlink" style="isolation:isolate" viewBox="0 0 2048 2048" width="2048pt" height="2048pt"><defs><clipPath id="_clipPath_bgS2ZxnNVQPVE044cGUTDjTqtJI7oUMN"><rect width="2048" height="2048"/></clipPath></defs><g clip-path="url(#_clipPath_bgS2ZxnNVQPVE044cGUTDjTqtJI7oUMN)"><defs><linearGradient id="_lgradient_20" x1="0" y1="0.5" x2="1" y2="0.5"><stop offset="0%" style="stop-color:#AA60E6"/><stop offset="100%" style="stop-color:#6078E6"/></linearGradient></defs><path d="M 137.142 299.854 L 199.366 362.078 C 207.171 369.883 207.171 382.557 199.366 390.362 L 137.142 452.586 C 129.337 460.391 116.663 460.391 108.858 452.586 L 46.634 390.362 C 38.829 382.557 38.829 369.883 46.634 362.078 L 108.858 299.854 C 116.663 292.049 129.337 292.049 137.142 299.854 Z" style="stroke:none;fill:url(#_lgradient_20);stroke-miterlimit:10;"/><defs><linearGradient id="_lgradient_21" x1="0" y1="0.5" x2="1" y2="0.5"><stop offset="0%" style="stop-color:#AA60E6"/><stop offset="100%" style="stop-color:#6078E6"/></linearGradient></defs><path d="M 1615.922 1757.634 L 1678.146 1819.858 C 1685.951 1827.663 1685.951 1840.337 1678.146 1848.142 L 1615.922 1910.366 C 1608.117 1918.171 1595.443 1918.171 1587.638 1910.366 L 1525.414 1848.142 C 1517.609 1840.337 1517.609 1827.663 1525.414 1819.858 L 1587.638 1757.634 C 1595.443 1749.829 1608.117 1749.829 1615.922 1757.634 Z" style="stroke:none;fill:url(#_lgradient_21);stroke-miterlimit:10;"/><defs><linearGradient id="_lgradient_22" x1="0" y1="0.5" x2="1" y2="0.5"><stop offset="0%" style="stop-color:#F159FF"/><stop offset="100%" style="stop-color:#876EFA"/></linearGradient></defs><path d="M 1244.608 120.093 L 1259.434 175.43 C 1261.294 182.371 1257.169 189.516 1250.228 191.376 L 1194.897 206.204 C 1187.956 208.064 1180.812 203.938 1178.952 196.997 L 1164.126 141.66 C 1162.266 134.719 1166.391 127.574 1173.332 125.714 L 1228.663 110.886 C 1235.604 109.026 1242.748 113.152 1244.608 120.093 Z" style="stroke:none;fill:url(#_lgradient_22);stroke-miterlimit:10;"/><defs><linearGradient id="_lgradient_23" x1="0" y1="0.5" x2="1" y2="0.5"><stop offset="0%" style="stop-color:#F159FF"/><stop offset="100%" style="stop-color:#876EFA"/></linearGradient></defs><path d="M 1837.958 1449.223 L 1852.784 1504.56 C 1854.644 1511.501 1850.519 1518.646 1843.578 1520.506 L 1788.247 1535.334 C 1781.306 1537.194 1774.162 1533.068 1772.302 1526.127 L 1757.476 1470.79 C 1755.616 1463.849 1759.741 1456.704 1766.682 1454.844 L 1822.013 1440.016 C 1828.954 1438.156 1836.098 1442.282 1837.958 1449.223 Z" style="stroke:none;fill:url(#_lgradient_23);stroke-miterlimit:10;"/><defs><linearGradient id="_lgradient_24" x1="0" y1="0.5" x2="1" y2="0.5"><stop offset="0%" style="stop-color:#F159FF"/><stop offset="100%" style="stop-color:#876EFA"/></linearGradient></defs><path d="M 684.726 628.983 L 772.744 605.397 C 799.146 598.322 826.324 614.015 833.398 640.417 L 856.983 728.44 C 864.057 754.843 848.366 782.023 821.964 789.097 L 733.946 812.683 C 707.544 819.758 680.366 804.065 673.292 777.663 L 649.707 689.64 C 642.633 663.237 658.324 636.057 684.726 628.983 Z" style="stroke:none;fill:url(#_lgradient_24);stroke-miterlimit:10;"/><defs><linearGradient id="_lgradient_25" x1="0" y1="0.5" x2="1" y2="0.5"><stop offset="0%" style="stop-color:#F159FF"/><stop offset="100%" style="stop-color:#876EFA"/></linearGradient></defs><path d="M 1289.377 1292.282 L 1377.4 1268.697 C 1403.803 1261.623 1430.983 1277.314 1438.057 1303.716 L 1461.643 1391.734 C 1468.718 1418.136 1453.025 1445.314 1426.623 1452.388 L 1338.6 1475.973 C 1312.197 1483.047 1285.017 1467.356 1277.943 1440.954 L 1254.357 1352.936 C 1247.282 1326.534 1262.975 1299.356 1289.377 1292.282 Z" style="stroke:none;fill:url(#_lgradient_25);stroke-miterlimit:10;"/><defs><linearGradient id="_lgradient_26" x1="0" y1="0.5" x2="1" y2="0.5"><stop offset="0%" style="stop-color:#F159FF"/><stop offset="100%" style="stop-color:#876EFA"/></linearGradient></defs><path d="M 1405.629 442.186 L 1436.587 388.566 C 1445.873 372.482 1466.47 366.963 1482.554 376.249 L 1536.174 407.207 C 1552.258 416.493 1557.777 437.09 1548.491 453.174 L 1517.533 506.794 C 1508.247 522.878 1487.65 528.397 1471.566 519.111 L 1417.946 488.153 C 1401.862 478.867 1396.343 458.27 1405.629 442.186 Z" style="stroke:none;fill:url(#_lgradient_26);stroke-miterlimit:10;"/><defs><linearGradient id="_lgradient_27" x1="0" y1="0.5" x2="1" y2="0.5"><stop offset="0%" style="stop-color:#F159FF"/><stop offset="100%" style="stop-color:#876EFA"/></linearGradient></defs><path d="M 578.789 1337.446 L 609.747 1283.826 C 619.033 1267.742 639.63 1262.223 655.714 1271.509 L 709.334 1302.467 C 725.418 1311.753 730.937 1332.35 721.651 1348.434 L 690.693 1402.054 C 681.407 1418.138 660.81 1423.657 644.726 1414.371 L 591.106 1383.413 C 575.022 1374.127 569.503 1353.53 578.789 1337.446 Z" style="stroke:none;fill:url(#_lgradient_27);stroke-miterlimit:10;"/><linearGradient id="_lgradient_28" x1="3.552713678800501e-15" y1="0.9999999999999999" x2="1.0000000000000038" y2="-7.771561172376096e-16"><stop offset="0%" stop-opacity="1" style="stop-color:rgb(105,182,250)"/><stop offset="100%" stop-opacity="1" style="stop-color:rgb(96,120,230)"/></linearGradient><line x1="324" y1="765" x2="195" y2="911.736" vector-effect="non-scaling-stroke" stroke-width="50" stroke="url(#_lgradient_28)" stroke-linejoin="miter" stroke-linecap="round" stroke-miterlimit="3"/><linearGradient id="_lgradient_29" x1="3.552713678800501e-15" y1="0.9999999999999999" x2="1.0000000000000038" y2="-7.771561172376096e-16"><stop offset="0%" stop-opacity="1" style="stop-color:rgb(105,182,250)"/><stop offset="100%" stop-opacity="1" style="stop-color:rgb(96,120,230)"/></linearGradient><line x1="1773.518" y1="1082" x2="1644.518" y2="1228.736" vector-effect="non-scaling-stroke" stroke-width="50" stroke="url(#_lgradient_29)" stroke-linejoin="miter" stroke-linecap="round" stroke-miterlimit="3"/><linearGradient id="_lgradient_30" x1="3.552713678800501e-15" y1="0.9999999999999999" x2="1.0000000000000038" y2="-7.771561172376096e-16"><stop offset="0%" stop-opacity="1" style="stop-color:rgb(105,182,250)"/><stop offset="100%" stop-opacity="1" style="stop-color:rgb(96,120,230)"/></linearGradient><line x1="1773.518" y1="92.023" x2="1853.234" y2="389.528" vector-effect="non-scaling-stroke" stroke-width="50" stroke="url(#_lgradient_30)" stroke-linejoin="miter" stroke-linecap="round" stroke-miterlimit="3"/><linearGradient id="_lgradient_31" x1="3.552713678800501e-15" y1="0.9999999999999999" x2="1.0000000000000038" y2="-7.771561172376096e-16"><stop offset="0%" stop-opacity="1" style="stop-color:rgb(105,182,250)"/><stop offset="100%" stop-opacity="1" style="stop-color:rgb(96,120,230)"/></linearGradient><line x1="606.395" y1="1685.247" x2="686.111" y2="1982.753" vector-effect="non-scaling-stroke" stroke-width="50" stroke="url(#_lgradient_31)" stroke-linejoin="miter" stroke-linecap="round" stroke-miterlimit="3"/><linearGradient id="_lgradient_32" x1="0" y1="0.5" x2="1" y2="0.5" gradientTransform="matrix(160.044,-113.955,113.955,160.044,415,315.955)" gradientUnits="userSpaceOnUse"><stop offset="0%" stop-opacity="1" style="stop-color:rgb(96,120,230)"/><stop offset="100%" stop-opacity="1" style="stop-color:rgb(105,182,250)"/></linearGradient><path d=" M 471.978 395.978 C 440.531 351.812 450.857 290.425 495.022 258.978 C 539.188 227.531 600.575 237.857 632.022 282.022 C 663.469 326.188 653.143 387.575 608.978 419.022 C 564.812 450.469 503.425 440.143 471.978 395.978 Z " fill="url(#_lgradient_32)"/><linearGradient id="_lgradient_33" x1="0" y1="0.5" x2="1" y2="0.5" gradientTransform="matrix(160.044,-113.955,113.955,160.044,88.775,1648.731)" gradientUnits="userSpaceOnUse"><stop offset="0%" stop-opacity="1" style="stop-color:rgb(96,120,230)"/><stop offset="100%" stop-opacity="1" style="stop-color:rgb(105,182,250)"/></linearGradient><path d=" M 145.753 1728.753 C 114.306 1684.587 124.632 1623.2 168.798 1591.753 C 212.963 1560.306 274.351 1570.632 305.797 1614.798 C 337.244 1658.963 326.918 1720.351 282.753 1751.797 C 238.587 1783.244 177.2 1772.918 145.753 1728.753 Z " fill="url(#_lgradient_33)"/><linearGradient id="_lgradient_34" x1="0" y1="0.5" x2="1" y2="0.5" gradientTransform="matrix(306.469,0,0,306.469,1700,646.766)" gradientUnits="userSpaceOnUse"><stop offset="0%" stop-opacity="1" style="stop-color:rgb(96,120,230)"/><stop offset="100%" stop-opacity="1" style="stop-color:rgb(105,182,250)"/></linearGradient><circle vector-effect="non-scaling-stroke" cx="1853.2344782498033" cy="800.0000000000001" r="153.23447824980303" fill="url(#_lgradient_34)"/><circle vector-effect="non-scaling-stroke" cx="1294" cy="864.0000000000001" r="64" fill="rgb(96,120,230)"/><circle vector-effect="non-scaling-stroke" cx="1052.0000000000002" cy="1770" r="64.00000000000006" fill="rgb(96,120,230)"/><defs><linearGradient id="_lgradient_35" x1="0" y1="0.5" x2="1" y2="0.5"><stop offset="0%" style="stop-color:#69B6FA"/><stop offset="100%" style="stop-color:#6078E6"/></linearGradient></defs><path d="M 822.712 90.95 L 844.71 129.052 C 847.47 133.832 845.83 139.952 841.05 142.712 L 802.948 164.71 C 798.168 167.47 792.048 165.83 789.288 161.05 L 767.29 122.948 C 764.53 118.168 766.17 112.048 770.95 109.288 L 809.052 87.29 C 813.832 84.53 819.952 86.17 822.712 90.95 Z" style="stroke:none;fill:url(#_lgradient_35);stroke-miterlimit:10;"/><defs><linearGradient id="_lgradient_36" x1="0" y1="0.5" x2="1" y2="0.5"><stop offset="0%" style="stop-color:#69B6FA"/><stop offset="100%" style="stop-color:#6078E6"/></linearGradient></defs><path d="M 939.769 958.23 L 961.77 996.338 C 964.53 1001.118 962.89 1007.239 958.11 1009.999 L 920.002 1032 C 915.222 1034.76 909.101 1033.12 906.341 1028.34 L 884.34 990.232 C 881.58 985.452 883.22 979.331 888 976.571 L 926.108 954.57 C 930.888 951.81 937.009 953.45 939.769 958.23 Z" style="stroke:none;fill:url(#_lgradient_36);stroke-miterlimit:10;"/><defs><linearGradient id="_lgradient_37" x1="0" y1="0.5" x2="1" y2="0.5"><stop offset="0%" style="stop-color:#69B6FA"/><stop offset="100%" style="stop-color:#6078E6"/></linearGradient></defs><path d="M 1108.769 413.89 L 1130.77 451.998 C 1133.53 456.778 1131.89 462.899 1127.11 465.659 L 1089.002 487.66 C 1084.222 490.42 1078.101 488.78 1075.341 484 L 1053.34 445.892 C 1050.58 441.112 1052.22 434.991 1057 432.231 L 1095.108 410.23 C 1099.888 407.47 1106.009 409.11 1108.769 413.89 Z" style="stroke:none;fill:url(#_lgradient_37);stroke-miterlimit:10;"/></g></svg>